<svg width="21" height="12" viewBox="0 0 21 12" fill="none" xmlns="http://www.w3.org/2000/svg">
<path d="M19.5 5H9.5C9.2 5 8.9998 5.10005 8.7998 5.30005C8.5998 5.50005 8.5 5.7 8.5 6C8.5 6.3 8.5998 6.49995 8.7998 6.69995C8.9998 6.89995 9.2 7 9.5 7H19.5C19.8 7 20.0002 6.89995 20.2002 6.69995C20.4002 6.49995 20.5 6.3 20.5 6C20.5 5.7 20.4002 5.50005 20.2002 5.30005C20.0002 5.10005 19.8 5 19.5 5ZM19.5 10H9.5C9.2 10 8.9998 10.1 8.7998 10.3C8.5998 10.5 8.5 10.7 8.5 11C8.5 11.3 8.5998 11.5 8.7998 11.7C8.9998 11.9 9.2 12 9.5 12H19.5C19.8 12 20.0002 11.9 20.2002 11.7C20.4002 11.5 20.5 11.3 20.5 11C20.5 10.7 20.4002 10.5 20.2002 10.3C20.0002 10.1 19.8 10 19.5 10ZM9.5 2H19.5C19.8 2 20.0002 1.89995 20.2002 1.69995C20.4002 1.49995 20.5 1.3 20.5 1C20.5 0.7 20.4002 0.500049 20.2002 0.300049C20.0002 0.100049 19.8 0 19.5 0H9.5C9.2 0 8.9998 0.100049 8.7998 0.300049C8.5998 0.500049 8.5 0.7 8.5 1C8.5 1.3 8.5998 1.49995 8.7998 1.69995C8.9998 1.89995 9.2 2 9.5 2ZM4.2002 0.300049C4.1002 0.200049 4.00039 0.0999756 3.90039 0.0999756C3.70039 -2.44156e-05 3.39961 -2.44156e-05 3.09961 0.0999756C2.99961 0.0999756 2.8998 0.200049 2.7998 0.300049L0.799805 2.30005C0.599805 2.50005 0.5 2.7 0.5 3C0.5 3.3 0.599805 3.49995 0.799805 3.69995C0.999805 3.89995 1.2 4 1.5 4C1.8 4 2.0002 3.89995 2.2002 3.69995L2.5 3.40002V11C2.5 11.3 2.5998 11.5 2.7998 11.7C2.9998 11.9 3.2 12 3.5 12C3.8 12 4.0002 11.9 4.2002 11.7C4.4002 11.5 4.5 11.3 4.5 11V3.40002L4.7998 3.69995C4.8998 3.79995 4.99961 3.90002 5.09961 3.90002C5.19961 4.00002 5.4 4 5.5 4C5.6 4 5.80039 4.00002 5.90039 3.90002C6.00039 3.80002 6.1002 3.79995 6.2002 3.69995C6.3002 3.59995 6.40039 3.50002 6.40039 3.40002C6.50039 3.30002 6.5 3.1 6.5 3C6.5 2.9 6.50039 2.69998 6.40039 2.59998C6.30039 2.49998 6.3002 2.40005 6.2002 2.30005L4.2002 0.300049Z" fill="#0D0E0F"/>
</svg>
